<svg width="270" height="270" viewBox="0 0 270 270" fill="none" xmlns="http://www.w3.org/2000/svg">
<path d="M130.361 176.156C181.596 176.156 223.123 134.203 223.123 67H37.5994C37.5994 134.203 79.1339 176.156 130.361 176.156Z" fill="#B3B3B3"/>
<path d="M120.213 175.567C123.621 175.952 127.086 176.156 130.593 176.156C181.827 176.156 223.355 134.203 223.355 67H72.6814C78.4396 97.8528 91.7794 148.29 120.213 175.567Z" fill="#D1D1D1"/>
<path d="M209.902 67C209.902 67 210.436 77.3987 209.082 86.5634C207.721 95.7281 183.917 91.626 183.917 91.626L201.977 81.7743L202.531 67H209.902Z" fill="#B3B3B3"/>
<path d="M129.912 163.842C108.016 163.842 87.9921 154.881 73.523 138.599C60.0499 123.439 52.0123 103.112 49.9784 79.306H209.846C207.812 103.112 199.775 123.439 186.302 138.599C171.833 154.881 151.809 163.842 129.912 163.842Z" fill="#2E1708"/>
<path d="M73.523 138.599C73.9579 139.09 74.3927 139.567 74.8416 140.044H184.99C185.432 139.567 185.874 139.09 186.309 138.599C199.782 123.439 207.819 103.112 209.853 79.306H49.9854C52.0193 103.112 60.0569 123.439 73.5301 138.599H73.523Z" fill="#572B0F"/>
<path d="M51.3039 89.9783H208.493C209.082 86.4513 209.671 82.8822 209.839 79.1378H49.9293C50.2379 82.8402 50.7148 86.4443 51.3039 89.9783Z" fill="#D1945C"/>
<path opacity="0.3" d="M147.103 67C155.877 114.022 143.568 159.579 129.863 176.156C129.975 176.156 130.088 176.156 130.2 176.156C132.479 176.156 141.723 175.77 143.855 175.195C170.121 162.062 186.281 94.0803 181.357 67H147.103Z" fill="white"/>
<path d="M220.984 79.825L215.612 93.302C229.176 99.753 234.099 109.549 229.477 121.14C224.014 134.841 211.403 134.35 200.659 130.788L195.286 144.258C219.42 152.553 236.133 143.578 242.937 126.511C249.747 109.443 244.171 90.4972 220.984 79.832V79.825Z" fill="#D1D1D1"/>
<path opacity="0.3" d="M222.822 80.7085L220.626 96.0928C230.326 102.432 233.475 111.105 229.477 121.14C227.5 126.097 224.589 129.182 221.166 130.956L228.994 143.22C235.313 139.595 240.033 133.796 242.937 126.511C249.557 109.906 244.459 91.521 222.815 80.7155L222.822 80.7085Z" fill="white"/>
<path d="M225.802 170.406H34.9131C28.886 170.406 24 175.291 24 181.316V185.047C24 191.073 28.886 195.957 34.9131 195.957H225.802C231.83 195.957 236.715 191.073 236.715 185.047V181.316C236.715 175.291 231.83 170.406 225.802 170.406Z" fill="#D1D1D1"/>
<path opacity="0.3" d="M223.944 170.406H36.7788C29.7231 170.406 24 176.128 24 183.182H236.716C236.716 176.128 230.992 170.406 223.937 170.406H223.944Z" fill="white"/>
<path d="M181.357 195.958H79.3653V202.058H181.357V195.958Z" fill="#B3B3B3"/>
<path opacity="0.25" d="M49.9293 79.1448H75.1502C75.1502 79.1448 87.5993 137.863 107.448 160.526C107.448 160.526 56.0872 149.51 49.9223 79.1448H49.9293Z" fill="#757575"/>
</svg>
