<svg width="270" height="270" viewBox="0 0 270 270" fill="none" xmlns="http://www.w3.org/2000/svg">
<path d="M54 92.5106H176.303V220.872C176.303 231.327 167.81 239.818 157.352 239.818H72.9578C62.5005 239.818 54.007 231.327 54.007 220.872V92.5106H54Z" fill="#D1D1D1"/>
<path d="M163.987 104.823V216.02C163.987 222.366 158.832 227.512 152.492 227.512H77.8112C71.4639 227.512 66.3159 222.358 66.3159 216.02V104.823H163.994H163.987Z" fill="#572B0F"/>
<path d="M163.987 104.578H66.3089V118.258H163.987V104.578Z" fill="#F5D6B9"/>
<path opacity="0.25" d="M84.6705 92.5106H54V217.647C54 229.897 64.0154 239.349 74.8585 239.825H84.6775V92.5106H84.6705Z" fill="#757575"/>
<path opacity="0.3" d="M163.987 237.511C170.889 233.963 176.303 227.169 176.303 217.639V92.5034H163.987V237.504V237.511Z" fill="white"/>
<path opacity="0.3" d="M156.328 92.5105H115.152V239.713H156.328V92.5105Z" fill="white"/>
<path d="M145.626 239.713H84.6705V244.327H145.626V239.713Z" fill="#B3B3B3"/>
<path d="M194.798 117.256C188.682 115.384 182.279 115.987 176.303 118.546V132.738C179.824 130.039 183.688 128.468 187.462 128.468C188.738 128.468 190.001 128.657 191.2 129.022C201.159 132.065 205.802 146.945 201.349 161.515C197.547 173.948 187.721 183.33 178.498 183.33C177.755 183.33 177.026 183.26 176.303 183.133V195.538C191.509 196.856 207.261 184.283 213.125 165.12C219.654 143.775 211.448 122.346 194.805 117.256H194.798Z" fill="#D1D1D1"/>
<path opacity="0.3" d="M194.798 117.256C188.682 115.384 182.279 115.987 176.303 118.546V132.738C179.824 130.039 183.688 128.468 187.462 128.468C188.738 128.468 190.001 128.657 191.2 129.022C201.159 132.065 205.802 146.945 201.349 161.515C199.694 166.936 196.895 171.767 193.501 175.504L204.077 182.152C207.97 177.433 211.126 171.662 213.132 165.113C219.661 143.768 211.455 122.339 194.812 117.249L194.798 117.256Z" fill="white"/>
<path d="M120.482 78.1217C119.521 76.4529 118.56 74.784 117.733 73.0451C117.641 72.8557 117.55 72.6594 117.459 72.463C117.445 72.428 117.038 71.4604 117.291 72.0844C117.501 72.6243 117.256 71.9792 117.207 71.846C117.108 71.6005 117.017 71.3481 116.933 71.0957C116.631 70.2192 116.372 69.3286 116.19 68.4241C116.155 68.2348 116.119 68.0455 116.084 67.8562C115.923 67.0288 116.112 68.1156 116.112 68.1156C116 68.0525 116.021 66.9797 116.021 66.8184C116.007 66.3837 116.014 65.9559 116.035 65.5211C116.049 65.3318 116.063 65.1425 116.077 64.9462C116.155 63.9715 115.86 65.8858 116.084 64.9321C116.169 64.5605 116.239 64.1889 116.344 63.8243C116.393 63.642 116.456 63.4596 116.512 63.2843C116.582 63.088 116.975 62.527 116.61 62.9968C116.211 63.5087 116.695 62.8566 116.765 62.7304C116.856 62.5621 116.947 62.4008 117.045 62.2396C117.143 62.0783 117.256 61.917 117.368 61.7487C117.908 60.9142 116.779 62.4079 117.431 61.6576C118.778 60.122 120.187 58.6705 121.366 56.9946C122.481 55.4099 123.294 53.6218 123.947 51.8057C125.223 48.2717 125.574 44.3099 125.125 40.5935C124.557 35.8114 123.007 31.3587 120.791 27.0814C119.774 25.1251 116.877 24.3818 115.032 25.5738C113.033 26.857 112.437 29.2341 113.524 31.3307C113.959 32.1652 114.359 33.0135 114.752 33.876C115.011 34.451 114.822 33.7709 114.696 33.7358C114.738 33.7498 114.892 34.2266 114.927 34.3178C115.117 34.8016 115.299 35.2925 115.467 35.7903C115.769 36.6809 116.035 37.5784 116.26 38.4899C116.484 39.4015 116.526 40.3691 116.793 41.2456C116.54 40.4252 116.73 40.7478 116.758 41.0564C116.779 41.2667 116.8 41.47 116.814 41.6803C116.849 42.1361 116.87 42.592 116.884 43.0477C116.905 43.9663 116.849 44.8709 116.779 45.7824C116.758 46.0489 116.61 46.5327 116.828 45.523C116.786 45.7123 116.772 45.9016 116.737 46.0909C116.667 46.5187 116.575 46.9394 116.477 47.3601C116.267 48.2507 115.993 49.1131 115.678 49.9686C115.565 50.2841 115.327 50.4243 115.776 49.7582C115.678 49.8984 115.614 50.1158 115.537 50.2771C115.355 50.6627 115.152 51.0414 114.941 51.413C114.731 51.7846 114.499 52.1493 114.261 52.5069C114.156 52.6682 114.043 52.8225 113.931 52.9767C113.447 53.6639 114.506 52.3456 113.875 53.0328C112.529 54.4983 111.133 55.9639 110.018 57.6187C107.584 61.2369 107.282 65.7455 107.935 69.9317C108.636 74.3913 110.986 78.4864 113.202 82.343C114.303 84.2502 117.059 85.0776 118.96 83.8505C120.861 82.6234 121.646 80.1342 120.468 78.0937L120.482 78.1217Z" fill="#AD571E"/>
<path d="M143.999 78.1217C143.038 76.4529 142.077 74.784 141.249 73.0451C141.158 72.8557 141.067 72.6594 140.976 72.463C140.962 72.428 140.555 71.4604 140.807 72.0844C141.018 72.6243 140.772 71.9792 140.723 71.846C140.625 71.6005 140.534 71.3481 140.45 71.0957C140.148 70.2192 139.889 69.3286 139.706 68.4241C139.671 68.2348 139.636 68.0455 139.601 67.8562C139.44 67.0288 139.629 68.1156 139.629 68.1156C139.517 68.0525 139.538 66.9797 139.538 66.8184C139.524 66.3837 139.531 65.9559 139.552 65.5211C139.566 65.3318 139.58 65.1425 139.594 64.9462C139.671 63.9715 139.377 65.8858 139.601 64.9321C139.685 64.5605 139.755 64.1889 139.861 63.8243C139.91 63.642 139.973 63.4596 140.029 63.2843C140.099 63.088 140.492 62.527 140.127 62.9968C139.727 63.5087 140.211 62.8566 140.281 62.7304C140.372 62.5621 140.464 62.4008 140.562 62.2396C140.66 62.0783 140.772 61.917 140.885 61.7487C141.425 60.9142 140.295 62.4079 140.948 61.6576C142.294 60.122 143.704 58.6705 144.882 56.9946C145.997 55.4099 146.811 53.6218 147.463 51.8057C148.74 48.2717 149.09 44.3099 148.642 40.5935C148.073 35.8114 146.523 31.3587 144.307 27.0814C143.29 25.1251 140.394 24.3818 138.549 25.5738C136.55 26.857 135.954 29.2341 137.041 31.3307C137.476 32.1652 137.876 33.0135 138.268 33.876C138.528 34.451 138.339 33.7709 138.212 33.7358C138.254 33.7498 138.409 34.2266 138.444 34.3178C138.633 34.8016 138.815 35.2925 138.984 35.7903C139.285 36.6809 139.552 37.5784 139.776 38.4899C140.001 39.4015 140.043 40.3691 140.309 41.2456C140.057 40.4252 140.246 40.7478 140.274 41.0564C140.295 41.2667 140.316 41.47 140.33 41.6803C140.365 42.1361 140.387 42.592 140.401 43.0477C140.422 43.9663 140.365 44.8709 140.295 45.7824C140.274 46.0489 140.127 46.5327 140.344 45.523C140.302 45.7123 140.288 45.9016 140.253 46.0909C140.183 46.5187 140.092 46.9394 139.994 47.3601C139.783 48.2507 139.51 49.1131 139.194 49.9686C139.082 50.2841 138.844 50.4243 139.292 49.7582C139.194 49.8984 139.131 50.1158 139.054 50.2771C138.872 50.6627 138.668 51.0414 138.458 51.413C138.247 51.7846 138.016 52.1493 137.777 52.5069C137.672 52.6682 137.56 52.8225 137.448 52.9767C136.964 53.6639 138.023 52.3456 137.392 53.0328C136.045 54.4983 134.649 55.9639 133.534 57.6187C131.101 61.2369 130.799 65.7455 131.451 69.9317C132.153 74.3913 134.502 78.4864 136.718 82.343C137.82 84.2502 140.576 85.0776 142.477 83.8505C144.377 82.6234 145.163 80.1342 143.985 78.0937L143.999 78.1217Z" fill="#AD571E"/>
<path d="M98.1857 78.1217C97.2249 76.4529 96.264 74.784 95.4364 73.0451C95.3452 72.8557 95.254 72.6594 95.1629 72.463C95.1488 72.428 94.7421 71.4604 94.9945 72.0844C95.205 72.6243 94.9594 71.9792 94.9103 71.846C94.8122 71.6005 94.721 71.3481 94.6368 71.0957C94.3353 70.2192 94.0758 69.3286 93.8934 68.4241C93.8583 68.2348 93.8233 68.0455 93.7882 67.8562C93.6269 67.0288 93.8162 68.1156 93.8162 68.1156C93.704 68.0525 93.7251 66.9797 93.7251 66.8184C93.7111 66.3837 93.718 65.9559 93.7391 65.5211C93.7531 65.3318 93.7671 65.1425 93.7812 64.9462C93.8583 63.9715 93.5637 65.8858 93.7882 64.9321C93.8723 64.5605 93.9425 64.1889 94.0477 63.8243C94.0968 63.642 94.1599 63.4596 94.216 63.2843C94.2861 63.088 94.6789 62.527 94.3142 62.9968C93.9144 63.5087 94.3984 62.8566 94.4685 62.7304C94.5597 62.5621 94.6509 62.4008 94.749 62.2396C94.8472 62.0783 94.9595 61.917 95.0717 61.7487C95.6117 60.9142 94.4825 62.4079 95.1348 61.6576C96.4814 60.122 97.8912 58.6705 99.0694 56.9946C100.185 55.4099 100.998 53.6218 101.65 51.8057C102.927 48.2717 103.278 44.3099 102.829 40.5935C102.261 35.8114 100.711 31.3587 98.4943 27.0814C97.4774 25.1251 94.5807 24.3818 92.7361 25.5738C90.7373 26.857 90.1411 29.2341 91.2282 31.3307C91.663 32.1652 92.0628 33.0135 92.4556 33.876C92.7151 34.451 92.5257 33.7709 92.3995 33.7358C92.4416 33.7498 92.5959 34.2266 92.6309 34.3178C92.8203 34.8016 93.0027 35.2925 93.171 35.7903C93.4726 36.6809 93.7391 37.5784 93.9635 38.4899C94.188 39.4015 94.23 40.3691 94.4966 41.2456C94.2441 40.4252 94.4335 40.7478 94.4615 41.0564C94.4825 41.2667 94.5036 41.47 94.5176 41.6803C94.5527 42.1361 94.5737 42.592 94.5877 43.0477C94.6088 43.9663 94.5527 44.8709 94.4825 45.7824C94.4615 46.0489 94.3142 46.5327 94.5316 45.523C94.4895 45.7123 94.4755 45.9016 94.4404 46.0909C94.3703 46.5187 94.2791 46.9394 94.1809 47.3601C93.9705 48.2507 93.697 49.1131 93.3814 49.9686C93.2692 50.2841 93.0307 50.4243 93.4796 49.7582C93.3814 49.8984 93.3183 50.1158 93.2411 50.2771C93.0588 50.6627 92.8554 51.0414 92.645 51.413C92.4346 51.7846 92.2031 52.1493 91.9647 52.5069C91.8595 52.6682 91.7472 52.8225 91.635 52.9767C91.1511 53.6639 92.2101 52.3456 91.5789 53.0328C90.2323 54.4983 88.8366 55.9639 87.7214 57.6187C85.2877 61.2369 84.9861 65.7455 85.6384 69.9317C86.3397 74.3913 88.6893 78.4864 90.9056 82.343C92.0067 84.2502 94.7631 85.0776 96.6637 83.8505C98.5644 82.6234 99.35 80.1342 98.1717 78.0937L98.1857 78.1217Z" fill="#AD571E"/>
</svg>
