<svg width="270" height="270" viewBox="0 0 270 270" fill="none" xmlns="http://www.w3.org/2000/svg">
<path d="M166.751 232.132H54.3299L42 64.1741H179.074L166.751 232.132Z" fill="#D1D1D1"/>
<path d="M69.5845 215.724L59.6673 80.5963H161.414L151.496 215.724H69.5845Z" fill="#572B0F"/>
<path d="M161.82 80.5963H60.0811L58.4399 64.041H162.641L161.82 80.5963Z" fill="#F5D6B9"/>
<path d="M65.5376 160.028H155.543L161.414 80.0915H59.6673L65.5376 160.028Z" fill="#D1945C"/>
<path d="M162.641 64.041C109.716 5.44877 58.4329 64.041 58.4329 64.041Z" fill="#F5E1CE"/>
<path opacity="0.3" d="M162.641 64.041L150.557 232.132H166.751L179.074 64.1741L162.641 64.041Z" fill="white"/>
<path d="M210.123 89.3755C200.297 83.6607 188.444 83.5063 177.089 87.8678L175.686 106.961C181.227 103.308 187.16 101.226 192.757 101.226C196.131 101.226 199.196 102.011 201.868 103.568C214.079 110.671 215.432 132.057 204.828 150.282C196.874 163.948 183.626 173.134 171.857 173.134C171.513 173.134 171.176 173.12 170.833 173.106L169.633 189.472C187.385 190.523 207.198 178.848 219.016 158.542C234.383 132.142 230.399 101.184 210.123 89.3895V89.3755Z" fill="#D1D1D1"/>
<path opacity="0.3" d="M201.868 103.561C214.079 110.664 215.432 132.05 204.828 150.274C204.267 151.242 203.67 152.182 203.06 153.107L211.982 168.555C214.542 165.505 216.912 162.16 219.023 158.535C234.39 132.134 230.406 101.177 210.13 89.3824C200.304 83.6676 188.451 83.5133 177.096 87.8747L175.693 106.968C181.234 103.315 187.167 101.233 192.764 101.233C196.138 101.233 199.203 102.018 201.875 103.575L201.868 103.561Z" fill="white"/>
<path d="M130.611 86.6107L111.85 93.8635C109.852 94.6359 108.859 96.8812 109.631 98.8787L116.886 117.636C117.658 119.633 119.904 120.626 121.902 119.854L140.663 112.601C142.661 111.829 143.654 109.584 142.882 107.586L135.627 88.829C134.855 86.8315 132.609 85.8384 130.611 86.6107Z" fill="#F5D6B9"/>
<path d="M106.042 125.113L86.5493 120.149C84.4735 119.621 82.3622 120.874 81.8334 122.95L76.8685 142.438C76.3397 144.513 77.5939 146.624 79.6696 147.153L99.1623 152.116C101.238 152.645 103.349 151.391 103.878 149.316L108.843 129.828C109.372 127.753 108.118 125.642 106.042 125.113Z" fill="#F5D6B9"/>
<path opacity="0.3" d="M120.903 232.217L143.438 232.132L156.399 64.1952L121.724 64.3075L120.903 232.217Z" fill="white"/>
<path opacity="0.25" d="M72.4881 64.5107L84.8671 232.132H54.3299L42 64.1741L72.4881 64.5107Z" fill="#757575"/>
</svg>
