<svg width="270" height="270" viewBox="0 0 270 270" fill="none" xmlns="http://www.w3.org/2000/svg">
<path d="M65 95.6733V146.679C65 153.908 80.0231 159.77 98.553 159.77C117.083 159.77 132.106 153.908 132.106 146.679V95.6733H65Z" fill="#F6E6D4"/>
<path d="M88.9655 95.6733H65V146.679C65 152.604 75.1066 157.61 88.9655 159.223V95.6733Z" fill="#F6D4AC"/>
<path d="M98.553 108.758C117.084 108.758 132.106 102.9 132.106 95.6733C132.106 88.447 117.084 82.589 98.553 82.589C80.0222 82.589 65 88.447 65 95.6733C65 102.9 80.0222 108.758 98.553 108.758Z" fill="#FAF3EA"/>
<path d="M136.917 95.0844V146.09C136.917 153.319 151.941 159.181 170.471 159.181C189 159.181 204.024 153.319 204.024 146.09V95.0844H136.917Z" fill="#F6E6D4"/>
<path d="M160.89 95.0844H136.925V146.09C136.925 152.015 147.031 157.021 160.89 158.634V95.0844Z" fill="#F6D4AC"/>
<path d="M170.471 108.169C189.001 108.169 204.024 102.311 204.024 95.0844C204.024 87.8581 189.001 81.9999 170.471 81.9999C151.94 81.9999 136.917 87.8581 136.917 95.0844C136.917 102.311 151.94 108.169 170.471 108.169Z" fill="#FAF3EA"/>
<path d="M98.5531 123.855V174.86C98.5531 182.089 113.576 187.951 132.106 187.951C150.636 187.951 165.659 182.089 165.659 174.86V123.855H98.5531Z" fill="#F6E6D4"/>
<path d="M122.519 123.855H98.5531V174.86C98.5531 180.785 108.66 185.791 122.519 187.404V123.855Z" fill="#F6D4AC"/>
<path d="M132.106 136.939C150.637 136.939 165.659 131.081 165.659 123.855C165.659 116.628 150.637 110.77 132.106 110.77C113.575 110.77 98.5531 116.628 98.5531 123.855C98.5531 131.081 113.575 136.939 132.106 136.939Z" fill="#FAF3EA"/>
</svg>
