<svg width="270" height="270" viewBox="0 0 270 270" fill="none" xmlns="http://www.w3.org/2000/svg">
<path d="M169.452 231.647H101.244C93.5014 231.647 87.0769 225.645 86.5509 217.925L82.0482 151.662C81.4731 143.156 88.2131 135.941 96.7417 135.941H173.961C182.49 135.941 189.23 143.156 188.655 151.662L184.152 217.925C183.626 225.652 177.202 231.647 169.459 231.647H169.452Z" fill="#FAF3EA"/>
<path d="M83.9277 143.401L119.297 78.316H151.392L187.42 144.692" fill="#FAF3EA"/>
<path d="M143.151 39.1191H127.538C122.987 39.1191 119.297 42.8074 119.297 47.3582V66.4589H151.392V47.3582C151.392 42.8074 147.702 39.1191 143.151 39.1191Z" fill="#AD571E"/>
<path d="M151.392 66.4589H119.297V78.3161H151.392V66.4589Z" fill="#913A00"/>
<path d="M185.281 201.187H85.4077L82.7916 162.691H187.989L185.281 201.187Z" fill="#AD571E"/>
<path d="M135.674 60.3094C138.327 60.3094 140.478 58.159 140.478 55.5063C140.478 52.8535 138.327 50.703 135.674 50.703C133.021 50.703 130.87 52.8535 130.87 55.5063C130.87 58.159 133.021 60.3094 135.674 60.3094Z" fill="#913A00"/>
<path opacity="0.25" d="M103.917 217.806L102.78 201.068L100.164 162.572L99.4139 151.542C99.2105 148.541 99.9188 145.701 101.301 143.282L136.67 78.197V47.2391C136.67 42.9898 139.896 39.4907 144.027 39.049C143.74 39.0209 143.445 39 143.144 39H127.531C122.98 39 119.29 42.6883 119.29 47.2391V78.197L83.9208 143.282C82.5461 145.701 81.8307 148.541 82.0341 151.542L82.7846 162.572L85.4007 201.068L86.5369 217.806C87.0629 225.533 93.4873 231.528 101.23 231.528H118.603C110.86 231.528 104.436 225.526 103.91 217.806H103.917Z" fill="black"/>
<path d="M135.674 194.961C146.353 194.961 155.011 189.131 155.011 181.939C155.011 174.748 146.353 168.918 135.674 168.918C124.995 168.918 116.338 174.748 116.338 181.939C116.338 189.131 124.995 194.961 135.674 194.961Z" fill="#FC7F2B"/>
</svg>
