<svg width="270" height="270" viewBox="0 0 270 270" fill="none" xmlns="http://www.w3.org/2000/svg">
<path d="M159.618 87.1223H116.919C104.365 87.1223 94.1884 97.297 94.1884 109.848V109.855C94.1884 122.406 104.365 132.581 116.919 132.581H159.618C172.172 132.581 182.349 122.406 182.349 109.855V109.848C182.349 97.297 172.172 87.1223 159.618 87.1223Z" fill="#FAF3EA"/>
<path d="M120.91 109.855C120.91 97.3037 131.087 87.1294 143.641 87.1294H114.717C102.163 87.1294 91.9861 97.3037 91.9861 109.855C91.9861 122.407 102.163 132.581 114.717 132.581H143.641C131.087 132.581 120.91 122.407 120.91 109.855Z" fill="#F6E6D4"/>
<path d="M173.821 125.38H102.717C90.1629 125.38 79.9858 135.554 79.9858 148.106V148.113C79.9858 160.664 90.1629 170.839 102.717 170.839H173.821C186.375 170.839 196.552 160.664 196.552 148.113V148.106C196.552 135.554 186.375 125.38 173.821 125.38Z" fill="#FAF3EA"/>
<path d="M105.845 148.113C105.845 135.561 116.022 125.387 128.576 125.387H99.652C87.0976 125.387 76.9209 135.561 76.9209 148.113C76.9209 160.664 87.0976 170.839 99.652 170.839H128.576C116.022 170.839 105.845 160.664 105.845 148.113Z" fill="#F6E6D4"/>
<path d="M186.971 165.138H89.5593C77.0053 165.138 66.8282 175.312 66.8282 187.864V187.871C66.8282 200.422 77.0053 210.597 89.5593 210.597H186.971C199.525 210.597 209.702 200.422 209.702 187.871V187.864C209.702 175.312 199.525 165.138 186.971 165.138Z" fill="#FAF3EA"/>
<path d="M89.9241 187.864C89.9241 175.312 100.101 165.138 112.655 165.138H83.7311C71.1767 165.138 61 175.312 61 187.864C61 200.415 71.1767 210.59 83.7311 210.59H112.655C100.101 210.59 89.9241 200.415 89.9241 187.864Z" fill="#F6E6D4"/>
<path d="M113.518 165.138H188.865C188.865 165.138 190.948 163.532 192.4 161.19H109.478L108.005 164.205L113.511 165.138H113.518Z" fill="#F6E6D4"/>
<path d="M101.574 210.597H186.964C186.964 210.597 194.434 210.596 199.771 206.649H97.5408L96.068 209.664L101.574 210.597Z" fill="#F6E6D4"/>
<path d="M100.725 125.478H176.072C176.072 125.478 177.699 124.027 179.116 121.53H96.6923L99.4065 123.508L100.725 125.485V125.478Z" fill="#F6E6D4"/>
<path d="M152.359 87.1223C152.359 87.1223 128.534 79.0585 134.096 60.007C134.096 60.007 105.55 75.5244 116.919 87.1223" fill="#F6E6D4"/>
<path d="M142.596 87.1223L163.833 87.5151C163.833 87.5151 128.534 79.0516 134.096 60C128.534 79.0516 132.672 82.7749 142.589 87.1153L142.596 87.1223Z" fill="#FAF3EA"/>
</svg>
