<svg width="270" height="270" viewBox="0 0 270 270" fill="none" xmlns="http://www.w3.org/2000/svg">
<path d="M166.751 269.035H54.3229L42 101.084H179.074L166.751 269.035Z" fill="#D1D1D1"/>
<path d="M69.5775 252.627L59.6673 117.506H161.407L151.489 252.627H69.5775Z" fill="#572B0F"/>
<path d="M161.813 117.506H60.0741L58.4329 100.951H162.641L161.813 117.506Z" fill="#F5D6B9"/>
<path d="M65.5306 196.931H155.543L161.407 117.001H59.6673L65.5306 196.931Z" fill="#D1945C"/>
<path d="M162.641 100.951C109.716 42.3584 58.4329 100.951 58.4329 100.951Z" fill="#F5E1CE"/>
<path opacity="0.25" d="M72.4881 101.42L84.8671 269.035H54.3229L42 101.084L72.4881 101.42Z" fill="#757575"/>
<path opacity="0.3" d="M162.641 100.951L150.557 269.035H166.751L179.074 101.084L162.641 100.951Z" fill="white"/>
<path opacity="0.3" d="M120.896 269.119L143.431 269.035L156.392 101.105L121.717 101.217L120.896 269.119Z" fill="white"/>
<path d="M210.116 126.285C200.29 120.57 188.437 120.416 177.082 124.777L175.679 143.871C181.22 140.218 187.153 138.135 192.75 138.135C196.124 138.135 199.189 138.92 201.861 140.477C214.072 147.58 215.425 168.967 204.821 187.191C196.867 200.857 183.619 210.043 171.85 210.043C171.506 210.043 171.169 210.029 170.826 210.015L169.627 226.381C187.378 227.433 207.191 215.758 219.009 195.451C234.376 169.051 230.392 138.093 210.116 126.299V126.285Z" fill="#D1D1D1"/>
<path opacity="0.3" d="M201.861 140.47C214.072 147.573 215.425 168.96 204.821 187.184C204.26 188.152 203.663 189.091 203.053 190.017L211.975 205.464C214.535 202.414 216.905 199.069 219.016 195.444C234.383 169.044 230.399 138.086 210.123 126.292C200.297 120.577 188.444 120.423 177.089 124.784L175.686 143.878C181.227 140.225 187.16 138.142 192.757 138.142C196.131 138.142 199.196 138.927 201.868 140.484L201.861 140.47Z" fill="white"/>
<path d="M113.946 53.1215C112.985 51.4527 112.024 49.7838 111.196 48.0448C111.105 47.8555 111.014 47.6593 110.923 47.463C110.909 47.4279 110.502 46.4602 110.754 47.0843C110.965 47.6242 110.719 46.979 110.67 46.8458C110.572 46.6004 110.481 46.3481 110.397 46.0957C110.095 45.2192 109.836 44.3286 109.653 43.424C109.618 43.2347 109.583 43.0454 109.548 42.856C109.387 42.0286 109.576 43.1156 109.576 43.1156C109.464 43.0524 109.485 41.9795 109.485 41.8183C109.471 41.3835 109.478 40.9557 109.499 40.521C109.513 40.3317 109.527 40.1425 109.541 39.9461C109.618 38.9715 109.324 40.8857 109.548 39.9321C109.632 39.5604 109.702 39.1888 109.808 38.8241C109.857 38.6418 109.92 38.4595 109.976 38.2842C110.046 38.0879 110.439 37.527 110.074 37.9968C109.674 38.5086 110.158 37.8564 110.228 37.7302C110.32 37.5619 110.411 37.4007 110.509 37.2394C110.607 37.0781 110.719 36.9169 110.832 36.7486C111.372 35.9142 110.242 37.4077 110.895 36.6574C112.241 35.1217 113.651 33.6703 114.829 31.9945C115.944 30.4097 116.758 28.6218 117.41 26.8057C118.687 23.2716 119.037 19.3098 118.589 15.5935C118.02 10.8113 116.47 6.35868 114.254 2.08136C113.237 0.125014 110.341 -0.61836 108.496 0.573679C106.497 1.85687 105.901 4.23391 106.988 6.3305C107.423 7.16492 107.823 8.01346 108.215 8.87594C108.475 9.45092 108.286 8.77079 108.159 8.73573C108.201 8.74976 108.356 9.22646 108.391 9.31761C108.58 9.80144 108.762 10.2923 108.931 10.7902C109.232 11.6807 109.499 12.5783 109.723 13.4899C109.948 14.4014 109.99 15.3691 110.256 16.2456C110.004 15.4251 110.193 15.7477 110.221 16.0562C110.242 16.2666 110.263 16.4698 110.277 16.6802C110.313 17.136 110.334 17.5919 110.348 18.0477C110.369 18.9663 110.312 19.8707 110.242 20.7823C110.221 21.0487 110.074 21.5325 110.291 20.5228C110.249 20.7121 110.235 20.9015 110.2 21.0908C110.13 21.5185 110.039 21.9393 109.941 22.36C109.73 23.2505 109.457 24.113 109.141 24.9684C109.029 25.284 108.791 25.4242 109.239 24.758C109.141 24.8983 109.078 25.1156 109.001 25.2769C108.819 25.6626 108.615 26.0413 108.405 26.4129C108.194 26.7846 107.963 27.1492 107.724 27.5069C107.619 27.6681 107.507 27.8223 107.395 27.9766C106.911 28.6638 107.97 27.3456 107.339 28.0328C105.992 29.4983 104.596 30.9636 103.481 32.6185C101.048 36.2366 100.746 40.7454 101.398 44.9316C102.1 49.3912 104.449 53.4862 106.665 57.3427C107.767 59.25 110.523 60.0775 112.424 58.8504C114.324 57.6233 115.11 55.1341 113.932 53.0936L113.946 53.1215Z" fill="#F0D6B8"/>
<path d="M137.462 53.1215C136.501 51.4527 135.54 49.7838 134.713 48.0448C134.622 47.8555 134.53 47.6593 134.439 47.463C134.425 47.4279 134.018 46.4602 134.271 47.0843C134.481 47.6242 134.236 46.979 134.187 46.8458C134.089 46.6004 133.997 46.3481 133.913 46.0957C133.612 45.2192 133.352 44.3286 133.17 43.424C133.135 43.2347 133.1 43.0454 133.065 42.856C132.903 42.0286 133.093 43.1156 133.093 43.1156C132.98 43.0524 133.001 41.9795 133.001 41.8183C132.987 41.3835 132.994 40.9557 133.016 40.521C133.03 40.3317 133.044 40.1425 133.058 39.9461C133.135 38.9715 132.84 40.8857 133.065 39.9321C133.149 39.5604 133.219 39.1888 133.324 38.8241C133.373 38.6418 133.436 38.4595 133.492 38.2842C133.563 38.0879 133.955 37.527 133.591 37.9968C133.191 38.5086 133.675 37.8564 133.745 37.7302C133.836 37.5619 133.927 37.4007 134.025 37.2394C134.124 37.0781 134.236 36.9169 134.348 36.7486C134.888 35.9142 133.759 37.4077 134.411 36.6574C135.758 35.1217 137.168 33.6703 138.346 31.9945C139.461 30.4097 140.275 28.6218 140.927 26.8057C142.203 23.2716 142.554 19.3098 142.105 15.5935C141.537 10.8113 139.987 6.35868 137.771 2.08136C136.754 0.125014 133.857 -0.61836 132.013 0.573679C130.014 1.85687 129.418 4.23391 130.505 6.3305C130.939 7.16492 131.339 8.01346 131.732 8.87594C131.992 9.45092 131.802 8.77079 131.676 8.73573C131.718 8.74976 131.872 9.22646 131.907 9.31761C132.097 9.80144 132.279 10.2923 132.447 10.7902C132.749 11.6807 133.016 12.5783 133.24 13.4899C133.464 14.4014 133.506 15.3691 133.773 16.2456C133.521 15.4251 133.71 15.7477 133.738 16.0562C133.759 16.2666 133.78 16.4698 133.794 16.6802C133.829 17.136 133.85 17.5919 133.864 18.0477C133.885 18.9663 133.829 19.8707 133.759 20.7823C133.738 21.0487 133.591 21.5325 133.808 20.5228C133.766 20.7121 133.752 20.9015 133.717 21.0908C133.647 21.5185 133.556 21.9393 133.457 22.36C133.247 23.2505 132.973 24.113 132.658 24.9684C132.546 25.284 132.307 25.4242 132.756 24.758C132.658 24.8983 132.595 25.1156 132.518 25.2769C132.335 25.6626 132.132 26.0413 131.921 26.4129C131.711 26.7846 131.48 27.1492 131.241 27.5069C131.136 27.6681 131.024 27.8223 130.911 27.9766C130.428 28.6638 131.487 27.3456 130.855 28.0328C129.509 29.4983 128.113 30.9636 126.998 32.6185C124.564 36.2366 124.263 40.7454 124.915 44.9316C125.616 49.3912 127.966 53.4862 130.182 57.3427C131.283 59.25 134.04 60.0775 135.94 58.8504C137.841 57.6233 138.626 55.1341 137.448 53.0936L137.462 53.1215Z" fill="#F0D6B8"/>
<path d="M91.6493 53.1215C90.6885 51.4527 89.7276 49.7838 88.9 48.0448C88.8088 47.8555 88.7176 47.6593 88.6264 47.463C88.6124 47.4279 88.2056 46.4602 88.4581 47.0843C88.6685 47.6242 88.423 46.979 88.3739 46.8458C88.2757 46.6004 88.1846 46.3481 88.1004 46.0957C87.7988 45.2192 87.5393 44.3286 87.357 43.424C87.3219 43.2347 87.2868 43.0454 87.2518 42.856C87.0905 42.0286 87.2798 43.1156 87.2798 43.1156C87.1676 43.0524 87.1886 41.9795 87.1886 41.8183C87.1746 41.3835 87.1816 40.9557 87.2027 40.521C87.2167 40.3317 87.2307 40.1425 87.2448 39.9461C87.3219 38.9715 87.0273 40.8857 87.2518 39.9321C87.3359 39.5604 87.4061 39.1888 87.5113 38.8241C87.5604 38.6418 87.6235 38.4595 87.6796 38.2842C87.7497 38.0879 88.1425 37.527 87.7778 37.9968C87.378 38.5086 87.8619 37.8564 87.9321 37.7302C88.0233 37.5619 88.1144 37.4007 88.2126 37.2394C88.3108 37.0781 88.4231 36.9169 88.5353 36.7486C89.0753 35.9142 87.9461 37.4077 88.5984 36.6574C89.945 35.1217 91.3547 33.6703 92.533 31.9945C93.6482 30.4097 94.4617 28.6218 95.114 26.8057C96.3905 23.2716 96.7412 19.3098 96.2923 15.5935C95.7242 10.8113 94.1742 6.35868 91.9579 2.08136C90.9409 0.125014 88.0443 -0.61836 86.1997 0.573679C84.2009 1.85687 83.6047 4.23391 84.6918 6.3305C85.1266 7.16492 85.5264 8.01346 85.9192 8.87594C86.1787 9.45092 85.9893 8.77079 85.8631 8.73573C85.9052 8.74976 86.0594 9.22646 86.0945 9.31761C86.2839 9.80144 86.4662 10.2923 86.6346 10.7902C86.9362 11.6807 87.2027 12.5783 87.4271 13.4899C87.6516 14.4014 87.6936 15.3691 87.9602 16.2456C87.7077 15.4251 87.897 15.7477 87.9251 16.0562C87.9461 16.2666 87.9671 16.4698 87.9812 16.6802C88.0162 17.136 88.0373 17.5919 88.0513 18.0477C88.0724 18.9663 88.0163 19.8707 87.9461 20.7823C87.9251 21.0487 87.7778 21.5325 87.9952 20.5228C87.9531 20.7121 87.9391 20.9015 87.904 21.0908C87.8339 21.5185 87.7427 21.9393 87.6445 22.36C87.4341 23.2505 87.1606 24.113 86.845 24.9684C86.7328 25.284 86.4943 25.4242 86.9432 24.758C86.845 24.8983 86.7818 25.1156 86.7047 25.2769C86.5223 25.6626 86.319 26.0413 86.1086 26.4129C85.8981 26.7846 85.6667 27.1492 85.4282 27.5069C85.323 27.6681 85.2108 27.8223 85.0986 27.9766C84.6147 28.6638 85.6737 27.3456 85.0425 28.0328C83.6959 29.4983 82.3002 30.9636 81.185 32.6185C78.7513 36.2366 78.4497 40.7454 79.102 44.9316C79.8033 49.3912 82.1529 53.4862 84.3692 57.3427C85.4703 59.25 88.2266 60.0775 90.1273 58.8504C92.028 57.6233 92.8136 55.1341 91.6353 53.0936L91.6493 53.1215Z" fill="#F0D6B8"/>
</svg>
