<svg width="270" height="270" viewBox="0 0 270 270" fill="none" xmlns="http://www.w3.org/2000/svg">
<path d="M166.751 232.126H54.3229L42 64.1673H179.074L166.751 232.126Z" fill="#D1D1D1"/>
<path d="M69.5775 215.717L59.6673 80.5894H161.407L151.489 215.717H69.5775Z" fill="#572B0F"/>
<path d="M161.82 80.5893H60.0741L58.4329 64.041H162.641L161.82 80.5893Z" fill="#F5D6B9"/>
<path d="M65.5306 160.021H155.543L161.407 80.0845H59.6673L65.5306 160.021Z" fill="#D1945C"/>
<path d="M162.641 64.041C109.716 5.44883 58.4329 64.041 58.4329 64.041Z" fill="#F5E1CE"/>
<path opacity="0.25" d="M72.4881 64.5039L84.8671 232.126H54.3229L42 64.1673L72.4881 64.5039Z" fill="#757575"/>
<path opacity="0.3" d="M162.641 64.041L150.557 232.126H166.751L179.074 64.1673L162.641 64.041Z" fill="white"/>
<path opacity="0.3" d="M120.896 232.21L143.431 232.126L156.392 64.1952L121.724 64.3075L120.896 232.21Z" fill="white"/>
<path d="M210.116 89.3684C200.29 83.6537 188.437 83.4993 177.082 87.8608L175.679 106.955C181.22 103.301 187.154 101.219 192.75 101.219C196.124 101.219 199.189 102.004 201.861 103.561C214.072 110.664 215.425 132.05 204.821 150.275C196.867 163.941 183.619 173.127 171.85 173.127C171.506 173.127 171.17 173.113 170.826 173.099L169.626 189.465C187.378 190.516 207.191 178.841 219.009 158.535C234.376 132.135 230.392 101.177 210.116 89.3825V89.3684Z" fill="#D1D1D1"/>
<path opacity="0.3" d="M201.861 103.561C214.072 110.664 215.425 132.05 204.821 150.275C204.26 151.242 203.664 152.182 203.053 153.107L211.975 168.555C214.535 165.505 216.905 162.16 219.016 158.535C234.383 132.135 230.399 101.177 210.123 89.3825C200.297 83.6677 188.444 83.5133 177.089 87.8748L175.686 106.968C181.227 103.315 187.16 101.233 192.757 101.233C196.131 101.233 199.196 102.018 201.868 103.575L201.861 103.561Z" fill="white"/>
</svg>
