<svg width="270" height="270" viewBox="0 0 270 270" fill="none" xmlns="http://www.w3.org/2000/svg">
<path d="M169.445 231.647H101.237C93.4943 231.647 87.0698 225.645 86.5438 217.925L82.0411 151.662C81.466 143.156 88.206 135.941 96.7346 135.941H173.954C182.483 135.941 189.223 143.156 188.648 151.662L184.145 217.925C183.619 225.652 177.195 231.647 169.452 231.647H169.445Z" fill="#FAF3EA"/>
<path d="M83.9208 143.402L119.297 78.3163H151.385L187.413 144.692" fill="#FAF3EA"/>
<path d="M143.144 39.1123H127.531C122.98 39.1123 119.29 42.8006 119.29 47.3514V66.4521H151.385V47.3514C151.385 42.8006 147.695 39.1123 143.144 39.1123Z" fill="#381414"/>
<path d="M151.392 66.452H119.297V78.3092H151.392V66.452Z" fill="#1F0B0B"/>
<path d="M185.274 201.187H85.4076L82.7845 162.692H187.982L185.274 201.187Z" fill="#381414"/>
<path d="M135.667 60.3096C138.32 60.3096 140.471 58.159 140.471 55.5063C140.471 52.8535 138.32 50.703 135.667 50.703C133.014 50.703 130.863 52.8535 130.863 55.5063C130.863 58.159 133.014 60.3096 135.667 60.3096Z" fill="#1F0B0B"/>
<path opacity="0.25" d="M103.917 217.806L102.78 201.068L100.164 162.572L99.4138 151.542C99.2104 148.541 99.9188 145.701 101.3 143.282L136.67 78.1971V47.2391C136.67 42.9898 139.896 39.4909 144.027 39.0491C143.74 39.0211 143.445 39 143.144 39H127.531C122.98 39 119.29 42.6883 119.29 47.2391V78.1971L83.9208 143.282C82.5461 145.701 81.8307 148.541 82.0341 151.542L82.7846 162.572L85.4007 201.068L86.5369 217.806C87.0629 225.533 93.4873 231.528 101.23 231.528H118.603C110.86 231.528 104.436 225.526 103.91 217.806H103.917Z" fill="black"/>
<path d="M135.667 194.961C146.346 194.961 155.004 189.131 155.004 181.94C155.004 174.748 146.346 168.918 135.667 168.918C124.988 168.918 116.331 174.748 116.331 181.94C116.331 189.131 124.988 194.961 135.667 194.961Z" fill="#A66247"/>
</svg>
