<svg width="270" height="270" viewBox="0 0 270 270" fill="none" xmlns="http://www.w3.org/2000/svg">
<path d="M122.25 104.557L49.7782 137.247L64.6611 166.052L136.873 127.69L122.25 104.557Z" fill="#914919"/>
<path d="M49.7782 137.247L44.006 144.315L44.9107 154.412L51.735 162.904L61.3155 166.052H64.661" fill="#914919"/>
<path d="M136.873 127.69L139.686 118.09L138.283 109.157L136.873 104.557L134.488 105.735L131.662 106.436L125.834 104.557H122.25" fill="#914919"/>
<path d="M130.463 107.706C128.19 102.04 119.788 104.557 119.788 104.557L51.735 136.307" stroke="#4C191B" stroke-width="5" stroke-miterlimit="10"/>
<path d="M82.3002 135.305L84.3973 145.423L81.9355 155.093L89.1736 152.091L136.873 125.979L138.325 113.364L135.94 106.57L84.0536 131.981L82.5527 133.741L82.3002 135.305Z" fill="#AD571E"/>
<path d="M70.9031 163.801L136.873 127.69C136.873 127.69 143.206 119.43 136.873 104.557L80.1751 132.43C86.2769 143.649 82.1249 157.694 70.9031 163.794C61.9257 168.675 50.6899 165.358 45.8014 156.383C41.8949 149.203 44.553 140.213 51.7349 136.307C57.4791 133.18 64.675 135.305 67.7961 141.055C70.2929 145.647 68.5956 151.404 64.0017 153.901C64.0017 153.901 56.7076 156.874 54.8279 150.205C54.8279 150.205 53.832 144.434 58.5802 146.047" stroke="#4C191B" stroke-width="5" stroke-linecap="round" stroke-linejoin="round"/>
<path d="M91.8457 150.633V139.351" stroke="#4C191B" stroke-width="2" stroke-miterlimit="10" stroke-linecap="round"/>
<path d="M99.168 147.534V136.251" stroke="#4C191B" stroke-width="2" stroke-miterlimit="10" stroke-linecap="round"/>
<path d="M105.999 144.568V133.292" stroke="#4C191B" stroke-width="2" stroke-miterlimit="10" stroke-linecap="round"/>
<path d="M165.327 104.557L92.8627 137.247L107.746 166.052L179.951 127.69L165.327 104.557Z" fill="#914919"/>
<path d="M92.8627 137.247L87.0835 144.315L87.9953 154.412L94.8195 162.904L104.4 166.052H107.746" fill="#914919"/>
<path d="M179.951 127.69L182.77 118.09L181.36 109.157L179.951 104.557L177.566 105.735L174.74 106.436L168.918 104.557H165.327" fill="#914919"/>
<path d="M173.547 107.706C171.275 102.04 162.872 104.557 162.872 104.557L94.8195 136.307" stroke="#4C191B" stroke-width="5" stroke-miterlimit="10"/>
<path d="M125.378 135.305L127.475 145.423L125.02 155.093L132.251 152.091L179.951 125.979L181.402 113.364L179.025 106.57L127.138 131.981L125.637 133.741L125.378 135.305Z" fill="#AD571E"/>
<path d="M113.988 163.801L179.958 127.69C179.958 127.69 186.291 119.43 179.958 104.557L123.26 132.43C129.362 143.649 125.209 157.694 113.988 163.794C105.01 168.675 93.7745 165.358 88.886 156.383C84.9795 149.203 87.6376 140.213 94.8195 136.307C100.564 133.18 107.76 135.305 110.881 141.055C113.378 145.647 111.68 151.404 107.086 153.901C107.086 153.901 99.7922 156.874 97.9125 150.205C97.9125 150.205 96.9166 144.434 101.665 146.047" stroke="#4C191B" stroke-width="5" stroke-linecap="round" stroke-linejoin="round"/>
<path d="M134.93 150.633V139.351" stroke="#4C191B" stroke-width="2" stroke-miterlimit="10" stroke-linecap="round"/>
<path d="M142.245 147.534V136.251" stroke="#4C191B" stroke-width="2" stroke-miterlimit="10" stroke-linecap="round"/>
<path d="M149.084 144.568V133.292" stroke="#4C191B" stroke-width="2" stroke-miterlimit="10" stroke-linecap="round"/>
<path d="M208.068 104.557L135.604 137.247L150.486 166.052L222.691 127.69L208.068 104.557Z" fill="#914919"/>
<path d="M135.604 137.247L129.824 144.315L130.736 154.412L137.56 162.904L147.134 166.052H150.486" fill="#914919"/>
<path d="M222.691 127.69L225.511 118.09L224.101 109.157L222.691 104.557L220.307 105.735L217.48 106.436L211.659 104.557H208.068" fill="#914919"/>
<path d="M216.288 107.706C214.016 102.04 205.613 104.557 205.613 104.557L137.56 136.307" stroke="#4C191B" stroke-width="5" stroke-miterlimit="10"/>
<path d="M168.119 135.305L170.216 145.423L167.761 155.093L174.992 152.091L222.691 125.979L224.143 113.364L221.766 106.57L169.872 131.981L168.378 133.741L168.119 135.305Z" fill="#AD571E"/>
<path d="M156.729 163.801L222.698 127.69C222.698 127.69 229.032 119.43 222.698 104.557L166.001 132.43C172.102 143.649 167.95 157.694 156.729 163.794C147.751 168.675 136.515 165.358 131.627 156.383C127.72 149.203 130.378 140.213 137.56 136.307C143.305 133.18 150.5 135.305 153.622 141.055C156.118 145.647 154.421 151.404 149.827 153.901C149.827 153.901 142.533 156.874 140.653 150.205C140.653 150.205 139.657 144.434 144.406 146.047" stroke="#4C191B" stroke-width="5" stroke-linecap="round" stroke-linejoin="round"/>
<path d="M177.664 150.633V139.351" stroke="#4C191B" stroke-width="2" stroke-miterlimit="10" stroke-linecap="round"/>
<path d="M184.986 147.534V136.251" stroke="#4C191B" stroke-width="2" stroke-miterlimit="10" stroke-linecap="round"/>
<path d="M191.825 144.568V133.292" stroke="#4C191B" stroke-width="2" stroke-miterlimit="10" stroke-linecap="round"/>
</svg>
