<svg width="270" height="270" viewBox="0 0 270 270" fill="none" xmlns="http://www.w3.org/2000/svg">
<path d="M130.361 212.168C181.596 212.168 223.123 170.215 223.123 103.012H37.5993C37.5993 170.215 79.1339 212.168 130.361 212.168Z" fill="#B3B3B3"/>
<path d="M120.22 211.579C123.628 211.964 127.093 212.168 130.6 212.168C181.834 212.168 223.362 170.215 223.362 103.012H72.6884C78.4466 133.865 91.7864 184.302 120.22 211.579Z" fill="#D1D1D1"/>
<path d="M209.909 103.012C209.909 103.012 210.443 113.411 209.089 122.575C207.728 131.74 183.924 127.638 183.924 127.638L201.984 117.786L202.538 103.012H209.909Z" fill="#B3B3B3"/>
<path d="M129.912 199.855C108.016 199.855 87.9921 190.893 73.523 174.611C60.0499 159.451 52.0123 139.124 49.9784 115.318H209.846C207.812 139.124 199.775 159.451 186.302 174.611C171.833 190.893 151.809 199.855 129.912 199.855Z" fill="#2E1708"/>
<path d="M73.523 174.611C73.9579 175.102 74.3927 175.579 74.8416 176.056H184.99C185.432 175.579 185.874 175.102 186.309 174.611C199.782 159.451 207.819 139.124 209.853 115.318H49.9854C52.0193 139.124 60.0569 159.451 73.53 174.611H73.523Z" fill="#572B0F"/>
<path d="M51.3039 125.99H208.493C209.082 122.463 209.671 118.894 209.839 115.15H49.9293C50.2379 118.852 50.7148 122.456 51.3039 125.99Z" fill="#D1945C"/>
<path opacity="0.3" d="M147.11 103.012C155.884 150.035 143.575 195.591 129.87 212.168C129.982 212.168 130.095 212.168 130.207 212.168C132.486 212.168 141.73 211.782 143.862 211.207C170.128 198.074 186.288 130.092 181.364 103.012H147.11Z" fill="white"/>
<path d="M220.991 115.837L215.619 129.314C229.183 135.765 234.106 145.561 229.484 157.152C224.021 170.853 211.41 170.362 200.666 166.8L195.293 180.27C219.427 188.565 236.14 179.59 242.944 162.523C249.754 145.456 244.178 126.509 220.991 115.844V115.837Z" fill="#D1D1D1"/>
<path opacity="0.3" d="M222.822 116.721L220.626 132.105C230.326 138.444 233.475 147.118 229.477 157.152C227.5 162.109 224.589 165.194 221.166 166.968L228.994 179.232C235.313 175.607 240.033 169.808 242.937 162.523C249.557 145.918 244.458 127.533 222.815 116.728L222.822 116.721Z" fill="white"/>
<path d="M225.81 206.418H34.9203C28.8931 206.418 24.0072 211.303 24.0072 217.329V221.059C24.0072 227.085 28.8931 231.97 34.9203 231.97H225.81C231.837 231.97 236.723 227.085 236.723 221.059V217.329C236.723 211.303 231.837 206.418 225.81 206.418Z" fill="#D1D1D1"/>
<path opacity="0.3" d="M223.944 206.418H36.7788C29.7231 206.418 24 212.14 24 219.194H236.715C236.715 212.14 230.992 206.418 223.937 206.418H223.944Z" fill="white"/>
<path d="M181.357 231.97H79.3653V238.07H181.357V231.97Z" fill="#B3B3B3"/>
<path d="M133.77 84.1217C132.809 82.4528 131.848 80.784 131.02 79.045C130.929 78.8557 130.838 78.6593 130.747 78.463C130.733 78.4279 130.326 77.4602 130.579 78.0843C130.789 78.6242 130.544 77.979 130.494 77.8458C130.396 77.6004 130.305 77.3481 130.221 77.0957C129.919 76.2192 129.66 75.3286 129.477 74.424C129.442 74.2347 129.407 74.0454 129.372 73.856C129.211 73.0286 129.4 74.1156 129.4 74.1156C129.288 74.0524 129.309 72.9795 129.309 72.8183C129.295 72.3835 129.302 71.9557 129.323 71.521C129.337 71.3317 129.351 71.1425 129.365 70.9461C129.442 69.9715 129.148 71.8857 129.372 70.9321C129.456 70.5604 129.527 70.1888 129.632 69.8241C129.681 69.6418 129.744 69.4595 129.8 69.2842C129.87 69.0879 130.263 68.527 129.898 68.9968C129.499 69.5086 129.982 68.8564 130.053 68.7302C130.144 68.5619 130.235 68.4007 130.333 68.2394C130.431 68.0781 130.544 67.9169 130.656 67.7486C131.196 66.9142 130.067 68.4077 130.719 67.6574C132.066 66.1217 133.475 64.6703 134.654 62.9945C135.769 61.4097 136.582 59.6218 137.235 57.8057C138.511 54.2716 138.862 50.3098 138.413 46.5935C137.845 41.8113 136.295 37.3587 134.078 33.0814C133.061 31.125 130.165 30.3816 128.32 31.5737C126.321 32.8569 125.725 35.2339 126.812 37.3305C127.247 38.1649 127.647 39.0135 128.04 39.8759C128.299 40.4509 128.11 39.7708 127.984 39.7357C128.026 39.7498 128.18 40.2265 128.215 40.3176C128.404 40.8014 128.587 41.2923 128.755 41.7902C129.057 42.6807 129.323 43.5783 129.548 44.4899C129.772 45.4014 129.814 46.3691 130.081 47.2456C129.828 46.4251 130.018 46.7477 130.046 47.0562C130.067 47.2666 130.088 47.4698 130.102 47.6802C130.137 48.136 130.158 48.5919 130.172 49.0477C130.193 49.9663 130.137 50.8707 130.067 51.7823C130.046 52.0487 129.898 52.5327 130.116 51.5229C130.074 51.7123 130.06 51.9015 130.025 52.0908C129.954 52.5185 129.863 52.9393 129.765 53.36C129.555 54.2505 129.281 55.113 128.966 55.9684C128.853 56.284 128.615 56.4242 129.064 55.758C128.966 55.8983 128.902 56.1156 128.825 56.2769C128.643 56.6626 128.44 57.0413 128.229 57.4129C128.019 57.7846 127.787 58.1492 127.549 58.5069C127.444 58.6681 127.331 58.8223 127.219 58.9766C126.735 59.6638 127.794 58.3456 127.163 59.0328C125.816 60.4983 124.421 61.9638 123.306 63.6186C120.872 67.2368 120.57 71.7454 121.223 75.9316C121.924 80.3912 124.273 84.4862 126.49 88.3427C127.591 90.25 130.347 91.0775 132.248 89.8504C134.149 88.6233 134.934 86.1341 133.756 84.0936L133.77 84.1217Z" fill="#AD571E"/>
<path d="M157.293 84.1217C156.333 82.4528 155.372 80.784 154.544 79.045C154.453 78.8557 154.362 78.6593 154.271 78.463C154.257 78.4279 153.85 77.4602 154.102 78.0843C154.313 78.6242 154.067 77.979 154.018 77.8458C153.92 77.6004 153.829 77.3481 153.745 77.0957C153.443 76.2192 153.184 75.3286 153.001 74.424C152.966 74.2347 152.931 74.0454 152.896 73.856C152.735 73.0286 152.924 74.1156 152.924 74.1156C152.812 74.0524 152.833 72.9795 152.833 72.8183C152.819 72.3835 152.826 71.9557 152.847 71.521C152.861 71.3317 152.875 71.1425 152.889 70.9461C152.966 69.9715 152.672 71.8857 152.896 70.9321C152.98 70.5604 153.05 70.1888 153.155 69.8241C153.205 69.6418 153.268 69.4595 153.324 69.2842C153.394 69.0879 153.787 68.527 153.422 68.9968C153.022 69.5086 153.506 68.8564 153.576 68.7302C153.667 68.5619 153.759 68.4007 153.857 68.2394C153.955 68.0781 154.067 67.9169 154.179 67.7486C154.719 66.9142 153.59 68.4077 154.243 67.6574C155.589 66.1217 156.999 64.6703 158.177 62.9945C159.292 61.4097 160.106 59.6218 160.758 57.8057C162.035 54.2716 162.385 50.3098 161.936 46.5935C161.368 41.8113 159.818 37.3587 157.602 33.0814C156.585 31.125 153.688 30.3816 151.844 31.5737C149.845 32.8569 149.249 35.2339 150.336 37.3305C150.771 38.1649 151.171 39.0135 151.563 39.8759C151.823 40.4509 151.634 39.7708 151.507 39.7357C151.549 39.7498 151.704 40.2265 151.739 40.3176C151.928 40.8014 152.11 41.2923 152.279 41.7902C152.58 42.6807 152.847 43.5783 153.071 44.4899C153.296 45.4014 153.338 46.3691 153.604 47.2456C153.352 46.4251 153.541 46.7477 153.569 47.0562C153.59 47.2666 153.611 47.4698 153.625 47.6802C153.66 48.136 153.681 48.5919 153.696 49.0477C153.717 49.9663 153.66 50.8707 153.59 51.7823C153.569 52.0487 153.422 52.5327 153.639 51.5229C153.597 51.7123 153.583 51.9015 153.548 52.0908C153.478 52.5185 153.387 52.9393 153.289 53.36C153.078 54.2505 152.805 55.113 152.489 55.9684C152.377 56.284 152.138 56.4242 152.587 55.758C152.489 55.8983 152.426 56.1156 152.349 56.2769C152.167 56.6626 151.963 57.0413 151.753 57.4129C151.542 57.7846 151.311 58.1492 151.072 58.5069C150.967 58.6681 150.855 58.8223 150.743 58.9766C150.259 59.6638 151.318 58.3456 150.687 59.0328C149.34 60.4983 147.944 61.9638 146.829 63.6186C144.395 67.2368 144.094 71.7454 144.746 75.9316C145.448 80.3912 147.797 84.4862 150.013 88.3427C151.114 90.25 153.871 91.0775 155.772 89.8504C157.672 88.6233 158.458 86.1341 157.279 84.0936L157.293 84.1217Z" fill="#AD571E"/>
<path d="M111.481 84.1217C110.52 82.4528 109.559 80.784 108.731 79.045C108.64 78.8557 108.549 78.6593 108.458 78.463C108.444 78.4279 108.037 77.4602 108.289 78.0843C108.5 78.6242 108.254 77.979 108.205 77.8458C108.107 77.6004 108.016 77.3481 107.932 77.0957C107.63 76.2192 107.371 75.3286 107.188 74.424C107.153 74.2347 107.118 74.0454 107.083 73.856C106.922 73.0286 107.111 74.1156 107.111 74.1156C106.999 74.0524 107.02 72.9795 107.02 72.8183C107.006 72.3835 107.013 71.9557 107.034 71.521C107.048 71.3317 107.062 71.1425 107.076 70.9461C107.153 69.9715 106.859 71.8857 107.083 70.9321C107.167 70.5604 107.237 70.1888 107.343 69.8241C107.392 69.6418 107.455 69.4595 107.511 69.2842C107.581 69.0879 107.974 68.527 107.609 68.9968C107.209 69.5086 107.693 68.8564 107.763 68.7302C107.855 68.5619 107.946 68.4007 108.044 68.2394C108.142 68.0781 108.254 67.9169 108.367 67.7486C108.907 66.9142 107.777 68.4077 108.43 67.6574C109.776 66.1217 111.186 64.6703 112.364 62.9945C113.48 61.4097 114.293 59.6218 114.945 57.8057C116.222 54.2716 116.572 50.3098 116.124 46.5935C115.556 41.8113 114.006 37.3587 111.789 33.0814C110.772 31.125 107.876 30.3816 106.031 31.5737C104.032 32.8569 103.436 35.2339 104.523 37.3305C104.958 38.1649 105.358 39.0135 105.751 39.8759C106.01 40.4509 105.821 39.7708 105.694 39.7357C105.736 39.7498 105.891 40.2265 105.926 40.3176C106.115 40.8014 106.298 41.2923 106.466 41.7902C106.767 42.6807 107.034 43.5783 107.258 44.4899C107.483 45.4014 107.525 46.3691 107.791 47.2456C107.539 46.4251 107.728 46.7477 107.756 47.0562C107.777 47.2666 107.798 47.4698 107.813 47.6802C107.848 48.136 107.869 48.5919 107.883 49.0477C107.904 49.9663 107.848 50.8707 107.777 51.7823C107.756 52.0487 107.609 52.5327 107.827 51.5229C107.784 51.7123 107.77 51.9015 107.735 52.0908C107.665 52.5185 107.574 52.9393 107.476 53.36C107.265 54.2505 106.992 55.113 106.676 55.9684C106.564 56.284 106.326 56.4242 106.774 55.758C106.676 55.8983 106.613 56.1156 106.536 56.2769C106.354 56.6626 106.15 57.0413 105.94 57.4129C105.729 57.7846 105.498 58.1492 105.26 58.5069C105.154 58.6681 105.042 58.8223 104.93 58.9766C104.446 59.6638 105.505 58.3456 104.874 59.0328C103.527 60.4983 102.132 61.9638 101.016 63.6186C98.5826 67.2368 98.281 71.7454 98.9333 75.9316C99.6346 80.3912 101.984 84.4862 104.201 88.3427C105.302 90.25 108.058 91.0775 109.959 89.8504C111.859 88.6233 112.645 86.1341 111.467 84.0936L111.481 84.1217Z" fill="#AD571E"/>
<path opacity="0.25" d="M49.9363 115.157H75.1572C75.1572 115.157 87.6063 173.875 107.455 196.538C107.455 196.538 56.0942 185.522 49.9293 115.157H49.9363Z" fill="#757575"/>
</svg>
