<svg width="270" height="270" viewBox="0 0 270 270" fill="none" xmlns="http://www.w3.org/2000/svg">
<path d="M54 59.0071H176.303V187.369C176.303 197.824 167.81 206.315 157.352 206.315H72.9578C62.5005 206.315 54.007 197.824 54.007 187.369V59.0071H54Z" fill="#D1D1D1"/>
<path d="M163.987 71.3131V182.509C163.987 188.855 158.832 194.002 152.492 194.002H77.8112C71.4639 194.002 66.316 188.848 66.316 182.509V71.3131H163.994H163.987Z" fill="#572B0F"/>
<path d="M163.987 71.0677H66.3089V84.7482H163.987V71.0677Z" fill="#F5D6B9"/>
<path opacity="0.3" d="M163.987 204.008C170.889 200.46 176.303 193.665 176.303 184.136V59H163.987V204.001V204.008Z" fill="white"/>
<path d="M145.626 206.21H84.6705V210.824H145.626V206.21Z" fill="#B3B3B3"/>
<path d="M194.798 83.7524C188.682 81.8802 182.279 82.4832 176.303 85.0425V99.2348C179.824 96.5352 183.688 94.9645 187.462 94.9645C188.738 94.9645 190.001 95.1539 191.2 95.5185C201.159 98.5617 205.802 113.441 201.349 128.012C197.547 140.444 187.721 149.826 178.498 149.826C177.755 149.826 177.026 149.756 176.303 149.63V162.034C191.509 163.353 207.261 150.78 213.125 131.616C219.654 110.272 211.448 88.8431 194.805 83.7524H194.798Z" fill="#D1D1D1"/>
<path opacity="0.3" d="M194.798 83.7524C188.682 81.8802 182.279 82.4832 176.303 85.0425V99.2348C179.824 96.5352 183.688 94.9645 187.462 94.9645C188.738 94.9645 190.001 95.1539 191.2 95.5185C201.159 98.5617 205.802 113.441 201.349 128.012C199.694 133.432 196.895 138.264 193.501 142.001L204.077 148.648C207.97 143.929 211.126 138.158 213.132 131.609C219.661 110.265 211.455 88.836 194.812 83.7453L194.798 83.7524Z" fill="white"/>
<path d="M102.901 138.763L84.1398 146.015C82.142 146.788 81.1486 149.033 81.9211 151.031L89.1756 169.788C89.9481 171.785 92.1939 172.778 94.1918 172.006L112.953 164.753C114.951 163.981 115.944 161.735 115.172 159.738L107.917 140.981C107.145 138.984 104.899 137.99 102.901 138.763Z" fill="#AD571E"/>
<path d="M145.923 125.111L126.774 118.953C124.735 118.297 122.55 119.418 121.894 121.457L115.735 140.602C115.079 142.64 116.2 144.825 118.24 145.48L137.389 151.638C139.428 152.294 141.612 151.173 142.268 149.134L148.427 129.989C149.083 127.951 147.962 125.766 145.923 125.111Z" fill="#AD571E"/>
<path opacity="0.25" d="M84.6705 59.0071H54V184.143C54 196.393 64.0154 205.845 74.8584 206.322H84.6775V59.0071H84.6705Z" fill="#757575"/>
<path opacity="0.3" d="M156.328 59.0071H115.152V206.21H156.328V59.0071Z" fill="white"/>
</svg>
