<svg width="270" height="270" viewBox="0 0 270 270" fill="none" xmlns="http://www.w3.org/2000/svg">
<path d="M103.125 175.885L135 144.01L166.875 175.885L175.8 166.96L143.925 135.085L175.8 103.21L166.875 94.285L135 126.16L103.125 94.285L94.2 103.21L126.075 135.085L94.2 166.96L103.125 175.885ZM135 220.085C123.397 220.085 112.39 217.875 102.062 213.37C91.735 208.907 82.6825 202.83 74.9475 195.095C67.2125 187.36 61.135 178.35 56.6725 167.98C52.21 157.652 50 146.645 50 135.042C50 123.44 52.2525 112.22 56.6725 101.892C61.135 91.565 67.2125 82.555 74.9475 74.905C82.6825 67.255 91.6925 61.22 102.062 56.715C112.39 52.2525 123.397 50 135 50C146.603 50 157.822 52.2525 168.15 56.6725C178.477 61.135 187.488 67.2125 195.138 74.8625C202.788 82.5125 208.865 91.5225 213.328 101.85C217.79 112.177 220.042 123.227 220.042 135C220.042 146.772 217.833 157.61 213.328 167.937C208.865 178.265 202.788 187.317 195.138 195.052C187.488 202.787 178.477 208.865 168.15 213.327C157.822 217.79 146.772 220.042 135 220.042V220.085ZM135 207.335C155.103 207.335 172.187 200.28 186.212 186.212C200.237 172.102 207.25 155.06 207.25 135.085C207.25 115.11 200.237 97.8975 186.212 83.8725C172.187 69.8475 155.103 62.835 135 62.835C114.897 62.835 97.9825 69.8475 83.915 83.8725C69.805 97.8975 62.75 114.982 62.75 135.085C62.75 155.187 69.805 172.102 83.915 186.212C98.025 200.322 115.067 207.335 135 207.335Z" fill="#432423"/>
</svg>
